<svg width="174" height="52" viewBox="0 0 174 52" fill="none" xmlns="http://www.w3.org/2000/svg">
<rect width="174" height="52" rx="26" fill="white"/>
<path d="M46.7368 33.586C53.7978 33.586 57.9608 33.494 60.6058 33.172L60.3988 30.734C58.9728 30.872 57.2478 30.987 54.9478 31.056V29.515C57.5468 29.078 58.7888 27.468 58.7888 25.904V25.076C58.7888 23.259 57.0868 21.35 53.4988 21.35C49.9108 21.35 48.2088 23.259 48.2088 25.076V25.904C48.2088 27.468 49.4508 29.078 52.0728 29.515V31.102C50.5088 31.125 48.7608 31.125 46.7368 31.125V33.586ZM64.3778 15.922H61.5028V37.312H64.3778V15.922ZM47.1738 18.222V20.66H59.5708V18.222H54.9478V15.876H52.0728V18.222H47.1738ZM53.4988 23.627C55.2928 23.627 56.0748 24.524 56.0748 25.352V25.628C56.0748 26.456 55.2928 27.353 53.4988 27.353C51.7048 27.353 50.9228 26.456 50.9228 25.628V25.352C50.9228 24.524 51.7048 23.627 53.4988 23.627ZM74.2944 24.478C77.3304 24.478 79.6764 22.937 79.6764 20.706V20.062C79.6764 17.831 77.3304 16.29 74.2944 16.29C71.2584 16.29 68.9124 17.831 68.9124 20.062V20.706C68.9124 22.937 71.2584 24.478 74.2944 24.478ZM78.1124 30.849H82.3444V32.436H85.2424V15.922H82.3444V28.503H78.1124V30.849ZM73.9264 31.378H71.0054V37.151H85.5874V34.667H73.9264V31.378ZM67.5324 27.813C69.3954 27.813 71.0514 27.813 72.5464 27.79V30.55H75.4214V27.744C77.9514 27.698 79.8144 27.583 81.2634 27.399L81.0564 24.984C78.0434 25.26 74.5704 25.375 67.5324 25.375V27.813ZM74.2944 18.659C75.8584 18.659 76.9394 19.349 76.9394 20.223V20.545C76.9394 21.419 75.8584 22.109 74.2944 22.109C72.7304 22.109 71.6494 21.419 71.6494 20.545V20.223C71.6494 19.349 72.7304 18.659 74.2944 18.659ZM105.141 15.922H102.22V37.312H105.141V26.249H108.085V23.719H105.141V15.922ZM90.191 32.896C97.827 28.227 98.885 26.686 98.885 22.04V17.854H89.041V20.361H95.964V21.902C95.964 25.306 95.573 26.479 88.65 30.596L90.191 32.896ZM115.265 26.64C118.899 26.64 120.739 24.386 120.739 21.948V21.304C120.739 18.866 118.899 16.612 115.265 16.612C111.631 16.612 109.791 18.866 109.791 21.304V21.948C109.791 24.386 111.631 26.64 115.265 26.64ZM115.265 19.073C117.128 19.073 117.979 20.246 117.979 21.373V21.879C117.979 23.006 117.128 24.179 115.265 24.179C113.402 24.179 112.551 23.006 112.551 21.879V21.373C112.551 20.246 113.402 19.073 115.265 19.073ZM123.982 26.939H126.88V15.922H123.982V26.939ZM124.005 27.905V30.32H116.139V27.905H113.264V37.335H126.88V27.905H124.005ZM116.139 34.943V32.712H124.005V34.943H116.139Z" fill="black"/>
</svg>
