<svg width="294" height="351" viewBox="0 0 294 351" fill="none" xmlns="http://www.w3.org/2000/svg">
<g clip-path="url(#clip0)">
<path d="M175.212 351C240.817 351 294 344.757 294 337.055C294 329.353 240.817 323.109 175.212 323.109C109.607 323.109 56.4238 329.353 56.4238 337.055C56.4238 344.757 109.607 351 175.212 351Z" fill="#BCBCBC"/>
<path d="M91.7232 0.0655748C91.5267 0.0437165 91.3519 0 91.1771 0C91.1335 0 91.0898 0.0218583 91.0461 0.0218583C84.7768 0.0874331 79.709 5.18041 79.709 11.4756V205.905H79.7308C79.84 262.627 125.822 308.573 182.551 308.573C239.258 308.573 285.24 262.627 285.371 205.905H285.808C285.808 96.0452 199.939 6.27332 91.7232 0.0655748Z" fill="#6E6EFF"/>
<path d="M111.536 112.701C119.39 112.701 125.757 106.331 125.757 98.4717C125.757 90.6128 119.39 84.2419 111.536 84.2419C103.682 84.2419 97.3154 90.6128 97.3154 98.4717C97.3154 106.331 103.682 112.701 111.536 112.701Z" fill="white"/>
<path d="M111.536 104.876C115.071 104.876 117.936 102.009 117.936 98.4716C117.936 94.9345 115.071 92.0671 111.536 92.0671C108.001 92.0671 105.136 94.9345 105.136 98.4716C105.136 102.009 108.001 104.876 111.536 104.876Z" fill="black"/>
<path d="M153.04 112.701C160.894 112.701 167.26 106.331 167.26 98.4717C167.26 90.6128 160.894 84.2419 153.04 84.2419C145.186 84.2419 138.819 90.6128 138.819 98.4717C138.819 106.331 145.186 112.701 153.04 112.701Z" fill="white"/>
<path d="M153.04 104.876C156.575 104.876 159.44 102.009 159.44 98.4716C159.44 94.9345 156.575 92.0671 153.04 92.0671C149.505 92.0671 146.64 94.9345 146.64 98.4716C146.64 102.009 149.505 104.876 153.04 104.876Z" fill="black"/>
<path d="M97.3154 311.699C91.3519 311.699 86.4807 306.912 86.3933 300.923C85.9346 265.775 119.531 252.594 120.951 252.048C126.586 249.906 132.899 252.747 135.04 258.387C137.181 264.004 134.363 270.299 128.771 272.463C127.788 272.857 107.975 280.988 108.237 300.639C108.325 306.671 103.497 311.633 97.4683 311.721C97.4028 311.699 97.3591 311.699 97.3154 311.699Z" fill="#6E6EFF"/>
<path d="M214.422 339.24C209.66 339.24 205.269 336.092 203.915 331.283L172.241 218.932C170.603 213.118 173.988 207.085 179.799 205.445C185.609 203.806 191.638 207.194 193.277 213.008L224.951 325.36C226.589 331.174 223.203 337.207 217.393 338.846C216.41 339.109 215.405 339.24 214.422 339.24Z" fill="#6E6EFF"/>
<path d="M75.6673 157.051C57.8862 157.051 29.8383 152.242 18.2828 124.089C15.9891 118.515 18.6541 112.111 24.2462 109.837C29.8383 107.542 36.1949 110.209 38.4886 115.805C48.9301 141.291 86.7641 134.406 87.1354 134.319C93.0334 133.182 98.7784 137.073 99.9143 143.018C101.05 148.942 97.1619 154.669 91.2203 155.805C90.4994 155.936 84.2957 157.051 75.6673 157.051Z" fill="#6E6EFF"/>
<path d="M25.2512 118.45C24.9017 118.45 24.5303 118.276 24.3337 117.948L0.174124 80.1766C-0.153538 79.6739 -0.000629338 78.9963 0.501785 78.6684C1.0042 78.3405 1.68137 78.4935 2.00903 78.9962L26.1686 116.767C26.4963 117.27 26.3434 117.948 25.841 118.276C25.6662 118.385 25.4696 118.45 25.2512 118.45Z" fill="#231815"/>
</g>
<defs>
<clipPath id="clip0">
<rect width="294" height="351" fill="white"/>
</clipPath>
</defs>
</svg>
