<svg width="550" height="323" viewBox="0 0 550 323" fill="none" xmlns="http://www.w3.org/2000/svg">
<path d="M72.2248 133.086C76.7997 133.086 80.5083 129.397 80.5083 124.846C80.5083 120.295 76.7997 116.606 72.2248 116.606C67.65 116.606 63.9414 120.295 63.9414 124.846C63.9414 129.397 67.65 133.086 72.2248 133.086Z" fill="#FF9E73"/>
<path d="M85.4582 133.086C90.033 133.086 93.7417 129.397 93.7417 124.846C93.7417 120.295 90.033 116.606 85.4582 116.606C80.8834 116.606 77.1748 120.295 77.1748 124.846C77.1748 129.397 80.8834 133.086 85.4582 133.086Z" fill="#FF9E73"/>
<path d="M98.6936 133.086C103.268 133.086 106.977 129.397 106.977 124.846C106.977 120.295 103.268 116.606 98.6936 116.606C94.1188 116.606 90.4102 120.295 90.4102 124.846C90.4102 129.397 94.1188 133.086 98.6936 133.086Z" fill="#FF9E73"/>
<path d="M111.929 133.086C116.504 133.086 120.212 129.397 120.212 124.846C120.212 120.295 116.504 116.606 111.929 116.606C107.354 116.606 103.646 120.295 103.646 124.846C103.646 129.397 107.354 133.086 111.929 133.086Z" fill="#FF9E73"/>
<path d="M125.163 133.086C129.738 133.086 133.447 129.397 133.447 124.846C133.447 120.295 129.738 116.606 125.163 116.606C120.588 116.606 116.88 120.295 116.88 124.846C116.88 129.397 120.588 133.086 125.163 133.086Z" fill="#FF9E73"/>
<path d="M72.2248 136.806C76.7997 136.806 80.5083 133.117 80.5083 128.566C80.5083 124.016 76.7997 120.327 72.2248 120.327C67.65 120.327 63.9414 124.016 63.9414 128.566C63.9414 133.117 67.65 136.806 72.2248 136.806Z" fill="#EF8B8B"/>
<path d="M85.4582 136.806C90.033 136.806 93.7417 133.117 93.7417 128.566C93.7417 124.016 90.033 120.327 85.4582 120.327C80.8834 120.327 77.1748 124.016 77.1748 128.566C77.1748 133.117 80.8834 136.806 85.4582 136.806Z" fill="#EF8B8B"/>
<path d="M98.6936 136.806C103.268 136.806 106.977 133.117 106.977 128.566C106.977 124.016 103.268 120.327 98.6936 120.327C94.1188 120.327 90.4102 124.016 90.4102 128.566C90.4102 133.117 94.1188 136.806 98.6936 136.806Z" fill="#EF8B8B"/>
<path d="M111.929 136.806C116.504 136.806 120.212 133.117 120.212 128.566C120.212 124.016 116.504 120.327 111.929 120.327C107.354 120.327 103.646 124.016 103.646 128.566C103.646 133.117 107.354 136.806 111.929 136.806Z" fill="#EF8B8B"/>
<path d="M125.163 136.806C129.738 136.806 133.447 133.117 133.447 128.566C133.447 124.016 129.738 120.327 125.163 120.327C120.588 120.327 116.88 124.016 116.88 128.566C116.88 133.117 120.588 136.806 125.163 136.806Z" fill="#EF8B8B"/>
<path d="M98.6937 156.578C120.94 156.578 138.973 152.646 138.973 147.794C138.973 142.943 120.94 139.01 98.6937 139.01C76.4479 139.01 58.4141 142.943 58.4141 147.794C58.4141 152.646 76.4479 156.578 98.6937 156.578Z" fill="#BCBBB7"/>
<path d="M140.606 147.882H56.7799C54.009 147.882 51.7559 145.648 51.7559 142.884V133.564C51.7559 130.807 54.0017 128.566 56.7799 128.566H140.599C143.369 128.566 145.623 130.8 145.623 133.564V142.884C145.63 145.648 143.377 147.882 140.606 147.882Z" fill="#E5E4DF"/>
<path d="M438.036 88.2375C436.702 88.2375 435.433 88.4986 434.259 88.9556C434.069 83.4285 429.519 79.0112 423.919 79.0112C420.164 79.0112 416.89 81.0059 415.074 83.9798C413.259 81.0059 409.977 79.0112 406.229 79.0112C400.505 79.0112 395.875 83.6244 395.875 89.311C395.875 89.4924 395.89 89.6664 395.904 89.8405C394.876 89.4996 393.782 89.311 392.638 89.311C386.913 89.311 382.283 93.9242 382.283 99.6108C382.283 105.305 386.921 109.911 392.638 109.911C395 109.911 397.166 109.113 398.908 107.793C400.804 110.223 403.757 111.797 407.09 111.797C411.29 111.797 414.892 109.309 416.518 105.74C418.399 107.655 421.017 108.844 423.919 108.844C426.654 108.844 429.125 107.785 430.978 106.066C432.83 107.785 435.302 108.844 438.036 108.844C443.76 108.844 448.39 104.231 448.39 98.5446C448.398 92.8507 443.76 88.2375 438.036 88.2375Z" fill="#E7EBF2"/>
<path d="M435.608 95.0992C434.419 95.0992 433.282 95.3313 432.239 95.7375C432.071 90.8052 428.01 86.8594 423.008 86.8594C419.654 86.8594 416.73 88.6365 415.111 91.2912C413.492 88.6365 410.561 86.8594 407.214 86.8594C402.11 86.8594 397.968 90.9793 397.968 96.0567C397.968 96.2162 397.983 96.3686 397.99 96.5281C397.071 96.2235 396.094 96.0567 395.073 96.0567C389.969 96.0567 385.827 100.177 385.827 105.254C385.827 110.331 389.969 114.451 395.073 114.451C397.18 114.451 399.12 113.74 400.673 112.558C402.365 114.727 405.004 116.134 407.98 116.134C411.727 116.134 414.95 113.914 416.402 110.723C418.079 112.428 420.419 113.494 423.008 113.494C425.443 113.494 427.66 112.551 429.308 111.013C430.963 112.544 433.173 113.494 435.608 113.494C440.712 113.494 444.854 109.374 444.854 104.296C444.854 99.2191 440.712 95.0992 435.608 95.0992Z" fill="#D9DFE8"/>
<path d="M249.828 323C309.277 323 357.469 314.735 357.469 304.54C357.469 294.345 309.277 286.081 249.828 286.081C190.38 286.081 142.188 294.345 142.188 304.54C142.188 314.735 190.38 323 249.828 323Z" fill="#D8D8D8"/>
<path d="M50.5186 308.044C50.5186 313.615 55.0613 318.133 60.6614 318.133H74.472C80.072 318.133 84.6148 313.615 84.6148 308.044V213.38H50.5186V308.044Z" fill="#DDB997"/>
<path d="M74.473 179.035H60.6624C55.0623 179.035 50.5195 183.554 50.5195 189.125V213.38H84.6158V189.125C84.6158 183.554 80.0803 179.035 74.473 179.035Z" fill="#C19C7E"/>
<path d="M487.369 189.124C487.369 183.554 482.826 179.035 477.226 179.035H463.415C457.815 179.035 453.272 183.554 453.272 189.124V213.38H487.369V189.124Z" fill="#C19C7E"/>
<path d="M453.272 213.38V308.044C453.272 313.615 457.815 318.133 463.415 318.133H477.226C482.826 318.133 487.369 313.615 487.369 308.044V213.38H453.272Z" fill="#DDB997"/>
<path d="M258.354 309.791C250.88 309.791 244.514 304.112 243.843 296.561C243.136 288.582 249.064 281.539 257.085 280.828C270.422 279.653 276.576 277.434 279.15 276.128C277.181 272.864 272.077 267.671 267.286 264.254C260.717 259.627 259.178 250.582 263.83 244.039C268.482 237.504 277.604 235.966 284.174 240.594C284.86 241.08 291.036 245.49 296.927 251.822C309.761 265.625 310.155 276.984 308.23 284.085C302.899 303.698 277.962 308.108 259.667 309.726C259.222 309.769 258.784 309.791 258.354 309.791Z" fill="#DDC72A"/>
<path d="M196.979 304.54C189.505 304.54 183.139 298.861 182.468 291.31C181.761 283.331 187.689 276.288 195.71 275.578C209.047 274.402 215.201 272.183 217.768 270.877C215.799 267.613 210.695 262.42 205.904 259.004C199.334 254.376 197.796 245.331 202.448 238.788C207.1 232.246 216.222 230.715 222.792 235.343C223.477 235.829 229.653 240.239 235.545 246.571C248.379 260.374 248.772 271.733 246.847 278.834C241.517 298.447 216.579 302.857 198.284 304.475C197.839 304.526 197.409 304.54 196.979 304.54Z" fill="#DDC72A"/>
<path d="M169.445 0.0507736C169.277 0.0435203 169.124 0 168.949 0C168.913 0 168.876 0.0145067 168.84 0.0145067C163.116 0.0797871 158.485 4.70019 158.485 10.4158V187.065H158.493C158.602 238.6 200.617 280.343 252.454 280.343C304.284 280.343 346.306 238.6 346.416 187.065H346.817C346.817 87.2581 268.358 5.70115 169.445 0.0507736Z" fill="#FFEC40"/>
<path d="M541.106 195.13H9.63878C4.80434 195.13 0.888672 191.235 0.888672 186.426V162.838C0.888672 158.029 4.80434 154.134 9.63878 154.134H541.106C545.94 154.134 549.856 158.029 549.856 162.838V186.426C549.856 191.235 545.94 195.13 541.106 195.13Z" fill="#E5C7A3"/>
<path d="M248.569 136.806C257.526 136.806 264.786 129.584 264.786 120.674C264.786 111.765 257.526 104.543 248.569 104.543C239.613 104.543 232.353 111.765 232.353 120.674C232.353 129.584 239.613 136.806 248.569 136.806Z" fill="white"/>
<path d="M248.567 127.935C252.598 127.935 255.866 124.684 255.866 120.674C255.866 116.664 252.598 113.413 248.567 113.413C244.535 113.413 241.268 116.664 241.268 120.674C241.268 124.684 244.535 127.935 248.567 127.935Z" fill="black"/>
<path d="M295.878 136.806C304.834 136.806 312.095 129.584 312.095 120.674C312.095 111.765 304.834 104.543 295.878 104.543C286.922 104.543 279.661 111.765 279.661 120.674C279.661 129.584 286.922 136.806 295.878 136.806Z" fill="white"/>
<path d="M295.876 127.935C299.907 127.935 303.175 124.684 303.175 120.674C303.175 116.664 299.907 113.413 295.876 113.413C291.845 113.413 288.577 116.664 288.577 120.674C288.577 124.684 291.845 127.935 295.876 127.935Z" fill="black"/>
<path d="M432.743 154.381H396.539C394.381 154.381 392.631 152.64 392.631 150.493V134.659C392.631 132.512 394.381 130.771 396.539 130.771H432.743C434.901 130.771 436.651 132.512 436.651 134.659V150.493C436.659 152.633 434.909 154.381 432.743 154.381Z" fill="#BCBBB7"/>
<path d="M446.567 147.28H382.721C379.016 147.28 376.02 144.292 376.02 140.615V108.163C376.02 104.478 379.024 101.497 382.721 101.497H446.567C450.271 101.497 453.268 104.485 453.268 108.163V140.615C453.268 144.299 450.271 147.28 446.567 147.28Z" fill="#E5E4DF"/>
</svg>
