<svg width="174" height="52" viewBox="0 0 174 52" fill="none" xmlns="http://www.w3.org/2000/svg">
<rect width="174" height="52" rx="26" fill="#9F9F9F"/>
<path d="M74.1086 29.285V26.847H62.2866V24.57H73.6256V17.44H59.3196V19.878H70.7276V22.155H59.3886V29.285H65.1156V32.183H56.7666V34.621H76.3626V32.183H68.0136V29.285H74.1086ZM77.7002 32.16V34.621H97.2962V32.16H77.7002ZM93.6852 30.573C94.1912 27.79 94.4442 25.858 94.4442 21.488V17.831H80.0462V20.384H91.5462V22.247C91.5462 24.869 91.3852 27.261 90.8102 30.228L93.6852 30.573ZM105.718 29.906H102.797V37.082H116.758V34.598H105.718V29.906ZM116.413 15.922H113.515V31.148H116.413V15.922ZM104.821 27.882C108.248 27.882 110.341 25.536 110.341 22.937V21.649C110.341 19.05 108.248 16.704 104.821 16.704C101.394 16.704 99.3008 19.05 99.3008 21.649V22.937C99.3008 25.536 101.394 27.882 104.821 27.882ZM104.821 19.211C106.546 19.211 107.604 20.476 107.604 21.856V22.73C107.604 24.11 106.546 25.375 104.821 25.375C103.096 25.375 102.038 24.11 102.038 22.73V21.856C102.038 20.476 103.096 19.211 104.821 19.211Z" fill="white"/>
</svg>
