<svg width="329" height="514" viewBox="0 0 329 514" fill="none" xmlns="http://www.w3.org/2000/svg">
<g clip-path="url(#clip0)">
<path d="M230.745 514C285.01 514 329 491.385 329 463.487C329 435.589 285.01 412.974 230.745 412.974C176.481 412.974 132.49 435.589 132.49 463.487C132.49 491.385 176.481 514 230.745 514Z" fill="#A8A8A8"/>
<path d="M213.111 447.246V361.218H205.107V465.878C205.107 458.539 208.186 451.932 213.111 447.246Z" fill="#DBDBDB"/>
<path d="M230.745 361.216V440.198C244.907 440.198 256.392 451.701 256.392 465.885V361.216H230.745Z" fill="#DBDBDB"/>
<path d="M230.744 440.189V361.207H213.102V447.235C217.706 442.879 223.91 440.189 230.744 440.189Z" fill="#A7AABC"/>
<path d="M230.745 440.189V486.776C244.907 486.776 256.392 480.06 256.392 465.876C256.392 451.692 244.916 440.189 230.745 440.189Z" fill="#DBDBDB"/>
<path d="M213.111 479.73V447.245C208.186 451.921 205.107 458.537 205.107 465.876C205.107 473.215 208.186 475.054 213.111 479.73Z" fill="#DBDBDB"/>
<path d="M213.111 447.244V479.729C217.707 484.094 223.911 486.785 230.754 486.785V440.197C223.911 440.188 217.707 442.879 213.111 447.244Z" fill="#A7AABC"/>
<path d="M230.745 379.893C285.01 379.893 329 357.277 329 329.379C329 301.482 285.01 278.866 230.745 278.866C176.481 278.866 132.49 301.482 132.49 329.379C132.49 357.277 176.481 379.893 230.745 379.893Z" fill="#665D5F"/>
<path d="M162.641 0.448038C162.449 0.393132 162.276 0.310774 162.084 0.265019C162.038 0.255868 161.993 0.255868 161.947 0.246717C155.305 -1.11678 148.781 3.12012 147.347 9.78201L102.979 215.688H102.988C90.1697 275.782 128.333 334.952 188.333 347.928C248.333 360.895 307.466 322.754 320.531 262.714L320.997 262.815C346.068 146.488 275.725 31.7809 162.641 0.448038Z" fill="#FF768D"/>
<path d="M208.635 180.858C217.379 180.858 224.468 173.758 224.468 165C224.468 156.241 217.379 149.141 208.635 149.141C199.89 149.141 192.801 156.241 192.801 165C192.801 173.758 199.89 180.858 208.635 180.858Z" fill="white"/>
<path d="M208.634 172.137C212.57 172.137 215.761 168.941 215.761 164.999C215.761 161.057 212.57 157.861 208.634 157.861C204.698 157.861 201.508 161.057 201.508 164.999C201.508 168.941 204.698 172.137 208.634 172.137Z" fill="black"/>
<path d="M148.333 178.004C157.077 178.004 164.166 170.904 164.166 162.145C164.166 153.387 157.077 146.287 148.333 146.287C139.588 146.287 132.499 153.387 132.499 162.145C132.499 170.904 139.588 178.004 148.333 178.004Z" fill="white"/>
<path d="M148.333 169.282C152.268 169.282 155.459 166.087 155.459 162.145C155.459 158.203 152.268 155.007 148.333 155.007C144.397 155.007 141.206 158.203 141.206 162.145C141.206 166.087 144.397 169.282 148.333 169.282Z" fill="black"/>
<path d="M168.763 401.324C168.498 401.324 168.233 401.315 167.959 401.306C157.872 400.867 150.06 392.329 150.49 382.226C151.805 351.698 164.861 325.335 188.251 305.98C205.273 291.897 221.783 286.489 223.61 285.921L234.473 320.869L234.583 320.832C232.728 321.436 189.055 336.206 186.999 383.8C186.579 393.637 178.493 401.324 168.763 401.324Z" fill="#FF768D"/>
<path d="M113.66 373.697C111.175 373.697 108.663 373.185 106.241 372.114C97.0226 368.005 92.8654 357.189 96.9678 347.955C109.366 320.036 131.157 300.297 160.001 290.872C180.997 284.008 198.329 285.043 200.239 285.18L197.562 321.683L197.671 321.692C195.725 321.573 149.686 319.295 130.362 362.826C127.338 369.652 120.659 373.697 113.66 373.697Z" fill="#FF768D"/>
<path d="M266.141 178.188C264.661 176.403 262.029 176.165 260.248 177.639C260.019 177.831 237.141 196.773 209.421 213.007C173.633 233.954 146.15 240.991 129.932 233.368C117.26 227.411 109.996 208.084 109.941 183.422L104.322 209.493C107.685 225.105 115.195 235.711 126.378 240.963C131.897 243.553 138.1 244.697 144.761 244.697C192.162 244.697 262.239 186.899 265.602 184.099C267.374 182.608 267.621 179.963 266.141 178.188Z" fill="white"/>
<path d="M79.8262 277.137C79.7988 277.137 79.7714 277.137 79.744 277.137C69.2826 277.11 60.2099 272.69 52.791 264.005L59.0405 258.652C64.9153 265.534 71.6855 268.883 79.7623 268.901C79.7806 268.901 79.808 268.901 79.8354 268.901C104.376 268.901 131.183 238.117 131.457 237.806L137.679 243.187C136.473 244.578 108.086 277.137 79.8262 277.137Z" fill="white"/>
<path d="M58.949 250.48L45.6826 277.613C47.5191 279.351 49.7484 280.532 52.1879 280.944L64.6685 255.412C63.1792 253.216 61.2148 251.496 58.949 250.48Z" fill="#C9C9C9"/>
<path d="M54.1344 249.419C46.6972 249.419 40.667 256.52 40.667 265.278C40.667 270.265 42.6222 274.712 45.683 277.613L58.9402 250.48C57.4509 249.803 55.8338 249.419 54.1344 249.419Z" fill="#666666"/>
<path d="M52.1875 280.944C52.8271 281.054 53.4666 281.127 54.1336 281.127C61.5708 281.127 67.601 274.026 67.601 265.269C67.601 261.535 66.5046 258.113 64.6681 255.413L52.1875 280.944Z" fill="#666666"/>
<path d="M35.5234 89.2126V81.0408C35.5234 78.6341 37.4695 76.6758 39.8816 76.6758H79.9182C82.3211 76.6758 84.2763 78.6249 84.2763 81.0408V89.2126C84.2763 91.6193 82.3302 93.5776 79.9182 93.5776H39.8725C37.4695 93.5776 35.5234 91.6284 35.5234 89.2126Z" fill="#FF768D"/>
<path d="M55.8152 60.7168H63.9742C66.3771 60.7168 68.3324 62.666 68.3324 65.0818V105.181C68.3324 107.588 66.3863 109.546 63.9742 109.546H55.8152C53.4123 109.546 51.457 107.597 51.457 105.181V65.0818C51.457 62.6751 53.4123 60.7168 55.8152 60.7168Z" fill="#FF768D"/>
<path d="M0 46.1482C0 43.7781 1.91869 41.8564 4.28507 41.8564H20.4934C22.8598 41.8564 24.7785 43.7781 24.7785 46.1482C24.7785 48.5183 22.8598 50.44 20.4934 50.44H4.28507C1.91869 50.4492 0 48.5275 0 46.1482Z" fill="#FF768D"/>
<path d="M12.3896 33.7397C14.7559 33.7397 16.6746 35.6614 16.6746 38.0315V54.2653C16.6746 56.6354 14.7559 58.5571 12.3896 58.5571C10.0232 58.5571 8.10449 56.6354 8.10449 54.2653V38.0407C8.10449 35.6614 10.0232 33.7397 12.3896 33.7397Z" fill="#FF768D"/>
</g>
<defs>
<clipPath id="clip0">
<rect width="329" height="514" fill="white"/>
</clipPath>
</defs>
</svg>
