<svg width="1018" height="429" viewBox="0 0 1018 429" fill="none" xmlns="http://www.w3.org/2000/svg">
<rect x="6" y="361" width="1012" height="68" rx="34" fill="#ACACAC"/>
<g clip-path="url(#clip0)">
<rect x="110.801" y="8.33447" width="744.629" height="211.93" fill="white"/>
<path d="M181.554 250.35C177.735 250.35 173.966 250.631 170.296 251.176C207.939 256.633 236.854 289.027 236.854 328.183C236.854 367.339 207.939 399.733 170.296 405.189C173.966 405.719 177.735 406.016 181.554 406.016C224.521 406.016 259.371 371.176 259.371 328.183C259.371 285.19 224.538 250.35 181.554 250.35Z" fill="#4C4C4C"/>
<path d="M170.296 405.173C207.055 405.173 236.854 370.696 236.854 328.166C236.854 285.637 207.055 251.16 170.296 251.16C133.537 251.16 103.738 285.637 103.738 328.166C103.738 370.696 133.537 405.173 170.296 405.173Z" fill="#6D6D6D"/>
<path d="M777.552 250.35C773.733 250.35 769.964 250.631 766.294 251.176C803.937 256.633 832.852 289.027 832.852 328.183C832.852 367.339 803.937 399.733 766.294 405.189C769.964 405.719 773.733 406.016 777.552 406.016C820.519 406.016 855.369 371.176 855.369 328.183C855.369 285.19 820.536 250.35 777.552 250.35Z" fill="#4C4C4C"/>
<path d="M766.294 405.173C803.053 405.173 832.852 370.696 832.852 328.166C832.852 285.637 803.053 251.16 766.294 251.16C729.535 251.16 699.736 285.637 699.736 328.166C699.736 370.696 729.535 405.173 766.294 405.173Z" fill="#6D6D6D"/>
<path d="M893.674 0H882.068V273.913C882.068 285.687 872.529 295.244 860.742 295.244H128.107H65.9629H0V296.716C0 314.095 14.0853 328.167 31.444 328.167H98.8783H161.022H893.674C905.445 328.167 915 318.626 915 306.836V21.331C915 9.54107 905.461 0 893.674 0Z" fill="#5858E0"/>
<g clip-path="url(#clip1)">
<path d="M490.404 200.005C490.459 200.005 490.514 200.023 490.588 200.023C490.606 200.023 490.606 200.023 490.624 200.023C492.72 200.005 494.411 198.299 494.411 196.207V131.27C494.374 112.334 478.97 96.9761 460 96.9761C441.011 96.9761 425.625 112.316 425.588 131.27H425.441C425.423 167.95 454.154 197.932 490.404 200.005Z" fill="#FFBD29"/>
<path d="M446.93 120.408C446.709 120.738 446.342 120.958 445.901 120.976C445.184 121.013 444.559 120.444 444.522 119.729L444.283 114.224C444.246 113.49 444.816 112.885 445.533 112.848C446.25 112.811 446.875 113.38 446.912 114.096L447.151 119.6C447.187 119.894 447.095 120.187 446.93 120.408Z" fill="black"/>
<path d="M462.904 120.132C462.812 119.967 462.739 119.765 462.739 119.545L462.389 112.609C462.353 111.875 462.904 111.27 463.639 111.233C464.375 111.196 464.981 111.765 465.018 112.481L465.367 119.417C465.404 120.151 464.853 120.756 464.117 120.793C463.603 120.83 463.143 120.554 462.904 120.132Z" fill="black"/>
<path d="M437.187 130.004C439.014 130.004 440.495 128.525 440.495 126.701C440.495 124.877 439.014 123.398 437.187 123.398C435.359 123.398 433.878 124.877 433.878 126.701C433.878 128.525 435.359 130.004 437.187 130.004Z" fill="white"/>
<path d="M472.481 130.004C474.308 130.004 475.789 128.525 475.789 126.701C475.789 124.877 474.308 123.398 472.481 123.398C470.653 123.398 469.172 124.877 469.172 126.701C469.172 128.525 470.653 130.004 472.481 130.004Z" fill="white"/>
<path d="M231.234 190.574C231.289 190.574 231.345 190.592 231.4 190.592C231.418 190.592 231.418 190.592 231.436 190.592C233.403 190.574 234.984 188.977 234.984 187.014V126.187C234.966 108.426 220.536 94.0586 202.76 94.0586C184.966 94.0586 170.555 108.426 170.518 126.187H170.371C170.371 160.555 197.301 188.629 231.234 190.574Z" fill="#A3A3A3"/>
<path d="M193.9 119.362C196.367 119.362 198.367 117.366 198.367 114.903C198.367 112.441 196.367 110.444 193.9 110.444C191.433 110.444 189.434 112.441 189.434 114.903C189.434 117.366 191.433 119.362 193.9 119.362Z" fill="white"/>
<path d="M193.9 116.903C195.007 116.903 195.904 116.007 195.904 114.903C195.904 113.798 195.007 112.903 193.9 112.903C192.794 112.903 191.896 113.798 191.896 114.903C191.896 116.007 192.794 116.903 193.9 116.903Z" fill="black"/>
<path d="M206.915 119.362C209.382 119.362 211.382 117.366 211.382 114.903C211.382 112.441 209.382 110.444 206.915 110.444C204.448 110.444 202.448 112.441 202.448 114.903C202.448 117.366 204.448 119.362 206.915 119.362Z" fill="white"/>
<path d="M206.915 116.903C208.021 116.903 208.918 116.007 208.918 114.903C208.918 113.798 208.021 112.903 206.915 112.903C205.808 112.903 204.911 113.798 204.911 114.903C204.911 116.007 205.808 116.903 206.915 116.903Z" fill="black"/>
<path d="M217.209 123.655H215.499C214.543 123.655 213.753 122.866 213.753 121.912C213.753 120.958 214.543 120.169 215.499 120.169H217.209C218.165 120.169 218.955 120.958 218.955 121.912C218.955 122.866 218.165 123.655 217.209 123.655Z" fill="#FFBDBD"/>
<path d="M186.161 123.655H184.451C183.496 123.655 182.705 122.866 182.705 121.912C182.705 120.958 183.496 120.169 184.451 120.169H186.161C187.117 120.169 187.907 120.958 187.907 121.912C187.907 122.866 187.117 123.655 186.161 123.655Z" fill="#FFBDBD"/>
<path d="M575.255 190.574C575.31 190.574 575.365 190.592 575.42 190.592C575.438 190.592 575.438 190.592 575.457 190.592C577.424 190.574 579.005 188.977 579.005 187.014V126.187C578.986 108.426 564.556 94.0586 546.762 94.0586C528.968 94.0586 514.557 108.426 514.52 126.187H514.373C514.391 160.555 541.321 188.629 575.255 190.574Z" fill="#FF85AE"/>
<path d="M537.921 119.362C540.388 119.362 542.388 117.366 542.388 114.903C542.388 112.441 540.388 110.444 537.921 110.444C535.454 110.444 533.454 112.441 533.454 114.903C533.454 117.366 535.454 119.362 537.921 119.362Z" fill="white"/>
<path d="M537.921 116.903C539.027 116.903 539.924 116.007 539.924 114.903C539.924 113.798 539.027 112.903 537.921 112.903C536.814 112.903 535.917 113.798 535.917 114.903C535.917 116.007 536.814 116.903 537.921 116.903Z" fill="black"/>
<path d="M550.935 119.362C553.402 119.362 555.401 117.366 555.401 114.903C555.401 112.441 553.402 110.444 550.935 110.444C548.468 110.444 546.468 112.441 546.468 114.903C546.468 117.366 548.468 119.362 550.935 119.362Z" fill="white"/>
<path d="M550.935 116.903C552.042 116.903 552.939 116.007 552.939 114.903C552.939 113.798 552.042 112.903 550.935 112.903C549.829 112.903 548.932 113.798 548.932 114.903C548.932 116.007 549.829 116.903 550.935 116.903Z" fill="black"/>
<path d="M561.229 123.655H559.52C558.564 123.655 557.773 122.866 557.773 121.912C557.773 120.958 558.564 120.169 559.52 120.169H561.229C562.185 120.169 562.976 120.958 562.976 121.912C562.976 122.866 562.185 123.655 561.229 123.655Z" fill="#FFBDBD"/>
<path d="M530.181 123.655H528.472C527.516 123.655 526.726 122.866 526.726 121.912C526.726 120.958 527.516 120.169 528.472 120.169H530.181C531.137 120.169 531.928 120.958 531.928 121.912C531.928 122.866 531.137 123.655 530.181 123.655Z" fill="#FFBDBD"/>
<path d="M317.041 194.427C317.096 194.427 317.152 194.445 317.225 194.445C317.244 194.445 317.244 194.445 317.262 194.445C319.302 194.427 320.957 192.757 320.957 190.721V127.472C320.92 109.013 305.92 94.0586 287.428 94.0586C268.917 94.0586 253.917 109.013 253.88 127.472H253.733C253.752 163.197 281.748 192.409 317.041 194.427Z" fill="#F2BBFF"/>
<path d="M271.399 116.389C271.013 116.389 270.627 116.224 270.388 115.894C269.965 115.325 270.057 114.536 270.627 114.096L274.892 110.829C275.462 110.389 276.252 110.499 276.693 111.068C277.116 111.637 277.024 112.426 276.454 112.866L272.19 116.132C271.951 116.297 271.675 116.389 271.399 116.389Z" fill="black"/>
<path d="M294.248 115.398C294.064 115.398 293.862 115.362 293.678 115.27L287.612 112.242C286.987 111.93 286.73 111.16 287.042 110.518C287.355 109.894 288.127 109.637 288.77 109.949L294.836 112.976C295.461 113.288 295.719 114.059 295.406 114.701C295.167 115.141 294.708 115.398 294.248 115.398Z" fill="black"/>
<path d="M265.204 126.224C266.981 126.224 268.421 124.787 268.421 123.013C268.421 121.24 266.981 119.802 265.204 119.802C263.428 119.802 261.987 121.24 261.987 123.013C261.987 124.787 263.428 126.224 265.204 126.224Z" fill="#FF9999"/>
<path d="M299.597 126.224C301.373 126.224 302.814 124.787 302.814 123.013C302.814 121.24 301.373 119.802 299.597 119.802C297.82 119.802 296.38 121.24 296.38 123.013C296.38 124.787 297.82 126.224 299.597 126.224Z" fill="#FF9999"/>
</g>
<path d="M128.107 295.244H860.758C872.529 295.244 882.085 285.703 882.085 273.913V0H98.8783C87.1074 0 77.5519 9.54107 77.5519 21.331V164.1H31.4275C14.0853 164.083 0 178.172 0 195.534V295.244H65.9629H128.107ZM649.661 53.8897C649.661 42.0006 659.299 32.3603 671.185 32.3603H825.677C837.564 32.3603 847.202 42.0006 847.202 53.8897V129.888C847.202 141.777 837.564 151.417 825.677 151.417H671.185C659.299 151.417 649.661 141.777 649.661 129.888V53.8897ZM393.876 53.8897C393.876 42.0006 403.515 32.3603 415.401 32.3603H569.893C581.78 32.3603 591.418 42.0006 591.418 53.8897V129.888C591.418 141.777 581.78 151.417 569.893 151.417H415.401C403.515 151.417 393.876 141.777 393.876 129.888V53.8897ZM138.076 53.8897C138.076 42.0006 147.714 32.3603 159.601 32.3603H314.093C325.979 32.3603 335.617 42.0006 335.617 53.8897V129.888C335.617 141.777 325.979 151.417 314.093 151.417H159.617C147.731 151.417 138.092 141.777 138.092 129.888V53.8897H138.076Z" fill="#6E6EFF"/>
</g>
<defs>
<clipPath id="clip0">
<rect width="915" height="406" fill="white"/>
</clipPath>
<clipPath id="clip1">
<rect width="408.652" height="105.965" fill="white" transform="translate(170.371 94.0586)"/>
</clipPath>
</defs>
</svg>
