<svg width="350" height="310" viewBox="0 0 350 310" fill="none" xmlns="http://www.w3.org/2000/svg">
<g clip-path="url(#clip0)">
<path d="M-3.09818e-07 16.7994C-3.09818e-07 7.52237 7.50141 0 16.7525 0H333.247C342.499 0 350 7.52237 350 16.7994V310H-3.09818e-07V16.7994Z" fill="white"/>
<path d="M24.4556 37.3153C24.4556 28.6133 31.49 24.2148 40.1677 24.2148H309.84C318.517 24.2148 325.552 28.6133 325.552 37.3153V310H24.4556V37.3153Z" fill="#E8E8E8"/>
<path d="M270.452 100.862C270.665 100.85 270.866 100.796 271.085 100.796C271.132 100.796 271.179 100.808 271.227 100.808C278.545 100.885 284.456 106.849 284.456 114.205V310H50.4764C50.4764 207.918 163.21 107.038 270.452 100.862Z" fill="#FFAF22"/>
<path d="M192.051 225.155C184.092 225.155 177.64 218.685 177.64 210.703C177.64 202.722 184.092 196.251 192.051 196.251C200.011 196.251 206.463 202.722 206.463 210.703C206.463 218.685 200.011 225.155 192.051 225.155Z" fill="white"/>
<path d="M192.051 217.206C188.47 217.206 185.567 214.295 185.567 210.703C185.567 207.112 188.47 204.201 192.051 204.201C195.633 204.201 198.536 207.112 198.536 210.703C198.536 214.295 195.633 217.206 192.051 217.206Z" fill="black"/>
<path d="M246.801 229.72C238.842 229.72 232.39 223.249 232.39 215.268C232.39 207.286 238.842 200.816 246.801 200.816C254.761 200.816 261.213 207.286 261.213 215.268C261.213 223.249 254.761 229.72 246.801 229.72Z" fill="white"/>
<path d="M246.801 221.771C243.22 221.771 240.317 218.859 240.317 215.268C240.317 211.677 243.22 208.765 246.801 208.765C250.383 208.765 253.286 211.677 253.286 215.268C253.286 218.859 250.383 221.771 246.801 221.771Z" fill="black"/>
</g>
<defs>
<clipPath id="clip0">
<rect width="350" height="310" fill="white" transform="matrix(-1 0 0 1 350 0)"/>
</clipPath>
</defs>
</svg>
