<svg width="499" height="273" viewBox="0 0 499 273" fill="none" xmlns="http://www.w3.org/2000/svg">
<path d="M488.366 273H10.634C4.76515 273 0 268.246 0 262.391V10.6089C0 4.75391 4.76515 0 10.634 0H488.357C494.235 0 498.991 4.75391 498.991 10.6089V262.382C499 268.246 494.244 273 488.366 273Z" fill="white"/>
<path d="M466.126 256.213H32.8742C26.9966 256.213 22.2402 251.459 22.2402 245.604V27.4048C22.2402 21.5411 27.0054 16.7959 32.8742 16.7959H466.126C472.003 16.7959 476.76 21.5498 476.76 27.4048V245.604C476.768 251.459 472.003 256.213 466.126 256.213Z" fill="#E8E8E8"/>
<path d="M429.388 153.313C429.485 153.304 429.572 153.287 429.66 153.287C429.677 153.287 429.704 153.295 429.721 153.295C432.901 153.33 435.467 155.9 435.467 159.08V256.212H331.028C331.615 201.21 374.904 156.441 429.388 153.313Z" fill="#DBFFBB"/>
<path d="M92.552 91.1457C92.4031 91.137 92.263 91.1021 92.114 91.1021C92.079 91.1021 92.044 91.1108 92.0177 91.1108C86.9197 91.1632 82.8027 95.2967 82.8027 100.391V256.213H250.354C249.408 167.986 179.963 96.1531 92.552 91.1457Z" fill="#FFB95C"/>
<path d="M347.505 122.3C347.627 122.291 347.741 122.265 347.864 122.265C347.89 122.265 347.916 122.273 347.943 122.273C352.077 122.317 355.415 125.664 355.415 129.806V256.222H219.485C220.256 184.633 276.597 126.354 347.505 122.3Z" fill="#929EF4"/>
<path d="M147.149 201.534C153.68 201.534 158.975 196.252 158.975 189.736C158.975 183.221 153.68 177.939 147.149 177.939C140.619 177.939 135.324 183.221 135.324 189.736C135.324 196.252 140.619 201.534 147.149 201.534Z" fill="white"/>
<path d="M147.15 195.041C150.086 195.041 152.467 192.666 152.467 189.737C152.467 186.807 150.086 184.432 147.15 184.432C144.214 184.432 141.833 186.807 141.833 189.737C141.833 192.666 144.214 195.041 147.15 195.041Z" fill="#54493E"/>
<path d="M102.59 208.289C109.121 208.289 114.415 203.007 114.415 196.491C114.415 189.976 109.121 184.694 102.59 184.694C96.059 184.694 90.7646 189.976 90.7646 196.491C90.7646 203.007 96.059 208.289 102.59 208.289Z" fill="white"/>
<path d="M102.59 201.796C105.527 201.796 107.907 199.421 107.907 196.491C107.907 193.562 105.527 191.187 102.59 191.187C99.6539 191.187 97.2734 193.562 97.2734 196.491C97.2734 199.421 99.6539 201.796 102.59 201.796Z" fill="#54493E"/>
<path d="M297.095 227.532C301.371 227.532 304.838 224.073 304.838 219.807C304.838 215.54 301.371 212.082 297.095 212.082C292.818 212.082 289.352 215.54 289.352 219.807C289.352 224.073 292.818 227.532 297.095 227.532Z" fill="white"/>
<path d="M297.095 223.18C298.962 223.18 300.476 221.67 300.476 219.807C300.476 217.944 298.962 216.434 297.095 216.434C295.228 216.434 293.714 217.944 293.714 219.807C293.714 221.67 295.228 223.18 297.095 223.18Z" fill="#54493E"/>
<path d="M328.996 231.806C333.273 231.806 336.74 228.347 336.74 224.081C336.74 219.814 333.273 216.355 328.996 216.355C324.72 216.355 321.253 219.814 321.253 224.081C321.253 228.347 324.72 231.806 328.996 231.806Z" fill="white"/>
<path d="M328.996 227.27C330.762 227.27 332.193 225.842 332.193 224.081C332.193 222.319 330.762 220.891 328.996 220.891C327.23 220.891 325.799 222.319 325.799 224.081C325.799 225.842 327.23 227.27 328.996 227.27Z" fill="#54493E"/>
</svg>
