<?xml version="1.0" encoding="utf-8"?>
<!-- Generator: Adobe Illustrator 25.2.0, SVG Export Plug-In . SVG Version: 6.00 Build 0)  -->
<svg version="1.1" id="레이어_1" xmlns="http://www.w3.org/2000/svg" xmlns:xlink="http://www.w3.org/1999/xlink" x="0px"
	 y="0px" viewBox="0 0 509.6 255.3" style="enable-background:new 0 0 509.6 255.3;" xml:space="preserve">
<style type="text/css">
	.st0{opacity:0.71;fill:#535382;}
	.st1{fill:#FFFFFF;}
	.st2{font-family:'NanumSquareOTFEB-KSCpc-EUC-H';}
	.st3{font-size:45.1519px;}
	.st4{font-family:'NanumSquareOTFL-KSCpc-EUC-H';}
	.st5{font-size:23.2646px;}
</style>
<g>
	<g>
		<defs>
			<path id="SVGID_1_" d="M470.7,244.9H38.9c-16.6,0-30-13.4-30-30V40.5c0-16.6,13.4-30,30-30h431.7c16.6,0,30,13.4,30,30v174.4
				C500.7,231.4,487.2,244.9,470.7,244.9z"/>
		</defs>
		<clipPath id="SVGID_2_">
			<use xlink:href="#SVGID_1_"  style="overflow:visible;"/>
		</clipPath>
		<g style="clip-path:url(#SVGID_2_);">
			
				<image style="overflow:visible;" width="1125" height="750" xlink:href="../../Downloads/pexels-photo-1453060.jpeg"  transform="matrix(0.4646 0 0 0.4646 -6.5106 -42.4681)">
			</image>
		</g>
	</g>
	<path class="st0" d="M470.7,244.9H38.9c-16.6,0-30-13.4-30-30V40.5c0-16.6,13.4-30,30-30h431.7c16.6,0,30,13.4,30,30v174.4
		C500.7,231.4,487.2,244.9,470.7,244.9z"/>
	<text transform="matrix(1 0 0 1 45.4051 78.4508)"><tspan x="0" y="0" class="st1 st2 st3">닿다</tspan><tspan x="82.2" y="0" class="st1 st4 st3">에게</tspan><tspan x="0" y="54.2" class="st1 st2 st3">궁금</tspan><tspan x="82.2" y="54.2" class="st1 st4 st3">한 것이 </tspan><tspan x="0" y="108.4" class="st1 st4 st3">있어요</tspan></text>
	<text transform="matrix(1 0 0 1 374.952 215.0677)" class="st1 st2 st5" style="text-decoration: underline;">바로가기</text>
</g>
</svg>
